<?xml version="1.0" encoding="utf-8"?>
<!-- Generator: Adobe Illustrator 18.1.0, SVG Export Plug-In . SVG Version: 6.00 Build 0)  -->
<svg version="1.1" id="Ebene_1" xmlns="http://www.w3.org/2000/svg" xmlns:xlink="http://www.w3.org/1999/xlink" x="0px" y="0px"
	 viewBox="0 0 87.7 153" enable-background="new 0 0 87.7 153" xml:space="preserve">
<g opacity="0.25">
	<path fill="#DC0267" d="M51.5,42.1c0-7.7-5.6-10.8-12-10.8c-7.3,0-12,3.9-17.6,9L1.6,21.9C11.7,9.8,25.7,1.7,42,1.7
		c25,0,44.7,10.8,44.7,37.9c0,25.8-31.4,32.7-29.3,56.4H25.3C21,67.9,51.5,55.9,51.5,42.1z M41.2,106.2c12.5,0,21.5,9.9,21.5,22.4
		c0,12.5-9,22.4-21.5,22.4c-12.5,0-21.5-9.9-21.5-22.4C19.7,116.1,28.7,106.2,41.2,106.2z"/>
</g>
</svg>
