<?xml version="1.0" encoding="UTF-8" standalone="no"?>
<!-- Created with Inkscape (http://www.inkscape.org/) -->
<svg xmlns:dc="http://purl.org/dc/elements/1.1/" xmlns:cc="http://creativecommons.org/ns#" xmlns:rdf="http://www.w3.org/1999/02/22-rdf-syntax-ns#" xmlns:svg="http://www.w3.org/2000/svg" xmlns="http://www.w3.org/2000/svg" xmlns:sodipodi="http://sodipodi.sourceforge.net/DTD/sodipodi-0.dtd" xmlns:inkscape="http://www.inkscape.org/namespaces/inkscape" width="652.69678" height="274.18329" id="svg2" version="1.1" inkscape:version="0.48.4 r9939" sodipodi:docname="ff_meshwebsite.svg">
  <defs id="defs4">
    <filter inkscape:collect="always" id="filter4536" color-interpolation-filters="sRGB">
      <feGaussianBlur inkscape:collect="always" stdDeviation="0.93467447" id="feGaussianBlur4538"/>
    </filter>
    <filter inkscape:collect="always" id="filter4540" color-interpolation-filters="sRGB">
      <feGaussianBlur inkscape:collect="always" stdDeviation="0.93467447" id="feGaussianBlur4542"/>
    </filter>
    <filter inkscape:collect="always" id="filter4544" x="-0.038058922" width="1.0761178" y="-0.16990593" height="1.3398119" color-interpolation-filters="sRGB">
      <feGaussianBlur inkscape:collect="always" stdDeviation="0.93467447" id="feGaussianBlur4546"/>
    </filter>
    <filter inkscape:collect="always" id="filter4548" color-interpolation-filters="sRGB">
      <feGaussianBlur inkscape:collect="always" stdDeviation="0.93467447" id="feGaussianBlur4550"/>
    </filter>
    <filter inkscape:collect="always" id="filter4552" color-interpolation-filters="sRGB">
      <feGaussianBlur inkscape:collect="always" stdDeviation="0.93467447" id="feGaussianBlur4554"/>
    </filter>
    <filter inkscape:collect="always" id="filter4556" x="-0.14416249" width="1.288325" y="-0.06996125" height="1.1399225" color-interpolation-filters="sRGB">
      <feGaussianBlur inkscape:collect="always" stdDeviation="0.93467447" id="feGaussianBlur4558"/>
    </filter>
    <filter inkscape:collect="always" id="filter4560" color-interpolation-filters="sRGB">
      <feGaussianBlur inkscape:collect="always" stdDeviation="0.93467447" id="feGaussianBlur4562"/>
    </filter>
    <filter inkscape:collect="always" id="filter4564" x="-0.16373727" width="1.3274745" y="-0.16373727" height="1.3274745" color-interpolation-filters="sRGB">
      <feGaussianBlur inkscape:collect="always" stdDeviation="1.0918617" id="feGaussianBlur4566"/>
    </filter>
    <filter inkscape:collect="always" id="filter4568" x="-0.16373727" width="1.3274745" y="-0.16373727" height="1.3274745" color-interpolation-filters="sRGB">
      <feGaussianBlur inkscape:collect="always" stdDeviation="1.0918617" id="feGaussianBlur4570"/>
    </filter>
    <filter inkscape:collect="always" id="filter4572" x="-0.16373727" width="1.3274745" y="-0.16373727" height="1.3274745" color-interpolation-filters="sRGB">
      <feGaussianBlur inkscape:collect="always" stdDeviation="1.0918617" id="feGaussianBlur4574"/>
    </filter>
    <filter inkscape:collect="always" id="filter4576" x="-0.16373727" width="1.3274745" y="-0.16373727" height="1.3274745" color-interpolation-filters="sRGB">
      <feGaussianBlur inkscape:collect="always" stdDeviation="1.0918617" id="feGaussianBlur4578"/>
    </filter>
    <filter inkscape:collect="always" id="filter4580" x="-0.16373727" width="1.3274745" y="-0.16373727" height="1.3274745" color-interpolation-filters="sRGB">
      <feGaussianBlur inkscape:collect="always" stdDeviation="1.0918617" id="feGaussianBlur4582"/>
    </filter>
    <filter inkscape:collect="always" id="filter4584" x="-0.16373727" width="1.3274745" y="-0.16373727" height="1.3274745" color-interpolation-filters="sRGB">
      <feGaussianBlur inkscape:collect="always" stdDeviation="1.0918617" id="feGaussianBlur4586"/>
    </filter>
    <filter inkscape:collect="always" id="filter4588" x="-0.16373727" width="1.3274745" y="-0.16373727" height="1.3274745" color-interpolation-filters="sRGB">
      <feGaussianBlur inkscape:collect="always" stdDeviation="1.0918617" id="feGaussianBlur4590"/>
    </filter>
    <filter inkscape:collect="always" id="filter4592" color-interpolation-filters="sRGB">
      <feGaussianBlur inkscape:collect="always" stdDeviation="0.93467447" id="feGaussianBlur4594"/>
    </filter>
    <filter inkscape:collect="always" id="filter4596" x="-0.29733559" width="1.5946712" y="-0.037756871" height="1.0755137" color-interpolation-filters="sRGB">
      <feGaussianBlur inkscape:collect="always" stdDeviation="0.93467447" id="feGaussianBlur4598"/>
    </filter>
    <filter inkscape:collect="always" id="filter4600" color-interpolation-filters="sRGB">
      <feGaussianBlur inkscape:collect="always" stdDeviation="0.93467447" id="feGaussianBlur4602"/>
    </filter>
    <filter inkscape:collect="always" id="filter4604" color-interpolation-filters="sRGB">
      <feGaussianBlur inkscape:collect="always" stdDeviation="0.93467447" id="feGaussianBlur4606"/>
    </filter>
    <filter inkscape:collect="always" id="filter4608" x="-0.16373727" width="1.3274745" y="-0.16373727" height="1.3274745" color-interpolation-filters="sRGB">
      <feGaussianBlur inkscape:collect="always" stdDeviation="1.0918617" id="feGaussianBlur4610"/>
    </filter>
    <filter inkscape:collect="always" id="filter4612" x="-0.16373727" width="1.3274745" y="-0.16373727" height="1.3274745" color-interpolation-filters="sRGB">
      <feGaussianBlur inkscape:collect="always" stdDeviation="1.0918617" id="feGaussianBlur4614"/>
    </filter>
    <filter inkscape:collect="always" id="filter4616" x="-0.16373727" width="1.3274745" y="-0.16373727" height="1.3274745" color-interpolation-filters="sRGB">
      <feGaussianBlur inkscape:collect="always" stdDeviation="1.0918617" id="feGaussianBlur4618"/>
    </filter>
    <filter color-interpolation-filters="sRGB" inkscape:collect="always" id="filter4580-9" x="-0.16373727" width="1.3274745" y="-0.16373727" height="1.3274745">
      <feGaussianBlur inkscape:collect="always" stdDeviation="1.0918617" id="feGaussianBlur4582-5"/>
    </filter>
    <filter color-interpolation-filters="sRGB" inkscape:collect="always" id="filter4580-1" x="-0.16373727" width="1.3274745" y="-0.16373727" height="1.3274745">
      <feGaussianBlur inkscape:collect="always" stdDeviation="1.0918617" id="feGaussianBlur4582-6"/>
    </filter>
    <filter color-interpolation-filters="sRGB" inkscape:collect="always" id="filter4580-12" x="-0.16373727" width="1.3274745" y="-0.16373727" height="1.3274745">
      <feGaussianBlur inkscape:collect="always" stdDeviation="1.0918617" id="feGaussianBlur4582-8"/>
    </filter>
    <filter color-interpolation-filters="sRGB" inkscape:collect="always" id="filter4580-7" x="-0.16373727" width="1.3274745" y="-0.16373727" height="1.3274745">
      <feGaussianBlur inkscape:collect="always" stdDeviation="1.0918617" id="feGaussianBlur4582-0"/>
    </filter>
    <filter color-interpolation-filters="sRGB" inkscape:collect="always" id="filter4580-0" x="-0.16373727" width="1.3274745" y="-0.16373727" height="1.3274745">
      <feGaussianBlur inkscape:collect="always" stdDeviation="1.0918617" id="feGaussianBlur4582-52"/>
    </filter>
    <filter color-interpolation-filters="sRGB" inkscape:collect="always" id="filter4580-03" x="-0.16373727" width="1.3274745" y="-0.16373727" height="1.3274745">
      <feGaussianBlur inkscape:collect="always" stdDeviation="1.0918617" id="feGaussianBlur4582-4"/>
    </filter>
    <filter color-interpolation-filters="sRGB" inkscape:collect="always" id="filter4560-4">
      <feGaussianBlur inkscape:collect="always" stdDeviation="0.93467447" id="feGaussianBlur4562-3"/>
    </filter>
    <filter color-interpolation-filters="sRGB" inkscape:collect="always" id="filter4560-3">
      <feGaussianBlur inkscape:collect="always" stdDeviation="0.93467447" id="feGaussianBlur4562-33"/>
    </filter>
    <filter color-interpolation-filters="sRGB" inkscape:collect="always" id="filter4560-6">
      <feGaussianBlur inkscape:collect="always" stdDeviation="0.93467447" id="feGaussianBlur4562-1"/>
    </filter>
    <filter color-interpolation-filters="sRGB" inkscape:collect="always" id="filter4560-7">
      <feGaussianBlur inkscape:collect="always" stdDeviation="0.93467447" id="feGaussianBlur4562-5"/>
    </filter>
    <filter color-interpolation-filters="sRGB" inkscape:collect="always" id="filter4580-12-2" x="-0.16373727" width="1.3274745" y="-0.16373727" height="1.3274745">
      <feGaussianBlur inkscape:collect="always" stdDeviation="1.0918617" id="feGaussianBlur4582-8-4"/>
    </filter>
    <filter color-interpolation-filters="sRGB" inkscape:collect="always" id="filter4580-12-4" x="-0.16373727" width="1.3274745" y="-0.16373727" height="1.3274745">
      <feGaussianBlur inkscape:collect="always" stdDeviation="1.0918617" id="feGaussianBlur4582-8-1"/>
    </filter>
    <filter color-interpolation-filters="sRGB" inkscape:collect="always" id="filter4536-4">
      <feGaussianBlur inkscape:collect="always" stdDeviation="0.93467447" id="feGaussianBlur4538-4"/>
    </filter>
    <filter color-interpolation-filters="sRGB" inkscape:collect="always" id="filter4536-0">
      <feGaussianBlur inkscape:collect="always" stdDeviation="0.93467447" id="feGaussianBlur4538-8"/>
    </filter>
    <filter color-interpolation-filters="sRGB" inkscape:collect="always" id="filter4608-5" x="-0.16373727" width="1.3274745" y="-0.16373727" height="1.3274745">
      <feGaussianBlur inkscape:collect="always" stdDeviation="1.0918617" id="feGaussianBlur4610-5"/>
    </filter>
    <filter color-interpolation-filters="sRGB" inkscape:collect="always" id="filter4608-1" x="-0.16373727" width="1.3274745" y="-0.16373727" height="1.3274745">
      <feGaussianBlur inkscape:collect="always" stdDeviation="1.0918617" id="feGaussianBlur4610-0"/>
    </filter>
    <filter color-interpolation-filters="sRGB" inkscape:collect="always" id="filter4608-6" x="-0.16373727" width="1.3274745" y="-0.16373727" height="1.3274745">
      <feGaussianBlur inkscape:collect="always" stdDeviation="1.0918617" id="feGaussianBlur4610-1"/>
    </filter>
    <filter color-interpolation-filters="sRGB" inkscape:collect="always" id="filter4548-9">
      <feGaussianBlur inkscape:collect="always" stdDeviation="0.93467447" id="feGaussianBlur4550-4"/>
    </filter>
    <filter color-interpolation-filters="sRGB" inkscape:collect="always" id="filter4548-6">
      <feGaussianBlur inkscape:collect="always" stdDeviation="0.93467447" id="feGaussianBlur4550-1"/>
    </filter>
    <filter color-interpolation-filters="sRGB" inkscape:collect="always" id="filter4580-03-3" x="-0.16373727" width="1.3274745" y="-0.16373727" height="1.3274745">
      <feGaussianBlur inkscape:collect="always" stdDeviation="1.0918617" id="feGaussianBlur4582-4-5"/>
    </filter>
    <filter color-interpolation-filters="sRGB" inkscape:collect="always" id="filter4580-03-9" x="-0.16373727" width="1.3274745" y="-0.16373727" height="1.3274745">
      <feGaussianBlur inkscape:collect="always" stdDeviation="1.0918617" id="feGaussianBlur4582-4-1"/>
    </filter>
    <filter color-interpolation-filters="sRGB" inkscape:collect="always" id="filter4548-6-8">
      <feGaussianBlur inkscape:collect="always" stdDeviation="0.93467447" id="feGaussianBlur4550-1-2"/>
    </filter>
    <filter color-interpolation-filters="sRGB" inkscape:collect="always" id="filter4548-6-3">
      <feGaussianBlur inkscape:collect="always" stdDeviation="0.93467447" id="feGaussianBlur4550-1-4"/>
    </filter>
    <filter color-interpolation-filters="sRGB" inkscape:collect="always" id="filter4608-5-0" x="-0.16373727" width="1.3274745" y="-0.16373727" height="1.3274745">
      <feGaussianBlur inkscape:collect="always" stdDeviation="1.0918617" id="feGaussianBlur4610-5-9"/>
    </filter>
    <filter color-interpolation-filters="sRGB" inkscape:collect="always" id="filter4560-4-3">
      <feGaussianBlur inkscape:collect="always" stdDeviation="0.93467447" id="feGaussianBlur4562-3-9"/>
    </filter>
    <filter color-interpolation-filters="sRGB" inkscape:collect="always" id="filter4580-03-1" x="-0.16373727" width="1.3274745" y="-0.16373727" height="1.3274745">
      <feGaussianBlur inkscape:collect="always" stdDeviation="1.0918617" id="feGaussianBlur4582-4-2"/>
    </filter>
    <filter color-interpolation-filters="sRGB" inkscape:collect="always" id="filter4560-4-0">
      <feGaussianBlur inkscape:collect="always" stdDeviation="0.93467447" id="feGaussianBlur4562-3-6"/>
    </filter>
    <filter color-interpolation-filters="sRGB" inkscape:collect="always" id="filter4560-4-4">
      <feGaussianBlur inkscape:collect="always" stdDeviation="0.93467447" id="feGaussianBlur4562-3-69"/>
    </filter>
    <filter color-interpolation-filters="sRGB" inkscape:collect="always" id="filter4580-03-96" x="-0.16373727" width="1.3274745" y="-0.16373727" height="1.3274745">
      <feGaussianBlur inkscape:collect="always" stdDeviation="1.0918617" id="feGaussianBlur4582-4-7"/>
    </filter>
    <filter color-interpolation-filters="sRGB" inkscape:collect="always" id="filter4580-03-6" x="-0.16373727" width="1.3274745" y="-0.16373727" height="1.3274745">
      <feGaussianBlur inkscape:collect="always" stdDeviation="1.0918617" id="feGaussianBlur4582-4-6"/>
    </filter>
    <filter color-interpolation-filters="sRGB" inkscape:collect="always" id="filter4580-03-4" x="-0.16373727" width="1.3274745" y="-0.16373727" height="1.3274745">
      <feGaussianBlur inkscape:collect="always" stdDeviation="1.0918617" id="feGaussianBlur4582-4-22"/>
    </filter>
    <filter color-interpolation-filters="sRGB" inkscape:collect="always" id="filter4580-03-7" x="-0.16373727" width="1.3274745" y="-0.16373727" height="1.3274745">
      <feGaussianBlur inkscape:collect="always" stdDeviation="1.0918617" id="feGaussianBlur4582-4-3"/>
    </filter>
    <filter color-interpolation-filters="sRGB" inkscape:collect="always" id="filter4580-03-5" x="-0.16373727" width="1.3274745" y="-0.16373727" height="1.3274745">
      <feGaussianBlur inkscape:collect="always" stdDeviation="1.0918617" id="feGaussianBlur4582-4-30"/>
    </filter>
    <filter color-interpolation-filters="sRGB" inkscape:collect="always" id="filter4560-4-4-6">
      <feGaussianBlur inkscape:collect="always" stdDeviation="0.93467447" id="feGaussianBlur4562-3-69-2"/>
    </filter>
    <filter color-interpolation-filters="sRGB" inkscape:collect="always" id="filter4560-4-4-7">
      <feGaussianBlur inkscape:collect="always" stdDeviation="0.93467447" id="feGaussianBlur4562-3-69-7"/>
    </filter>
    <filter color-interpolation-filters="sRGB" inkscape:collect="always" id="filter4560-4-4-64">
      <feGaussianBlur inkscape:collect="always" stdDeviation="0.93467447" id="feGaussianBlur4562-3-69-3"/>
    </filter>
    <filter color-interpolation-filters="sRGB" inkscape:collect="always" id="filter4560-4-4-1">
      <feGaussianBlur inkscape:collect="always" stdDeviation="0.93467447" id="feGaussianBlur4562-3-69-1"/>
    </filter>
    <filter color-interpolation-filters="sRGB" inkscape:collect="always" id="filter4560-4-4-73">
      <feGaussianBlur inkscape:collect="always" stdDeviation="0.93467447" id="feGaussianBlur4562-3-69-5"/>
    </filter>
    <filter color-interpolation-filters="sRGB" inkscape:collect="always" id="filter4560-4-4-12">
      <feGaussianBlur inkscape:collect="always" stdDeviation="0.93467447" id="feGaussianBlur4562-3-69-22"/>
    </filter>
    <filter color-interpolation-filters="sRGB" inkscape:collect="always" id="filter4560-4-4-72">
      <feGaussianBlur inkscape:collect="always" stdDeviation="0.93467447" id="feGaussianBlur4562-3-69-24"/>
    </filter>
    <filter color-interpolation-filters="sRGB" inkscape:collect="always" id="filter4560-4-4-8">
      <feGaussianBlur inkscape:collect="always" stdDeviation="0.93467447" id="feGaussianBlur4562-3-69-0"/>
    </filter>
    <filter color-interpolation-filters="sRGB" inkscape:collect="always" id="filter4560-4-4-4">
      <feGaussianBlur inkscape:collect="always" stdDeviation="0.93467447" id="feGaussianBlur4562-3-69-55"/>
    </filter>
  </defs>
  <sodipodi:namedview id="base" pagecolor="#ffffff" bordercolor="#666666" borderopacity="1.0" inkscape:pageopacity="0.0" inkscape:pageshadow="2" inkscape:zoom="0.74980769" inkscape:cx="268.13717" inkscape:cy="36.298649" inkscape:document-units="px" inkscape:current-layer="layer1" showgrid="false" inkscape:window-width="1280" inkscape:window-height="714" inkscape:window-x="0" inkscape:window-y="32" inkscape:window-maximized="1" fit-margin-top="0" fit-margin-left="0" fit-margin-right="0" fit-margin-bottom="0"/>
  <metadata id="metadata7">
    <rdf:RDF>
      <cc:Work rdf:about="">
        <dc:format>image/svg+xml</dc:format>
        <dc:type rdf:resource="http://purl.org/dc/dcmitype/StillImage"/>
        <dc:title/>
      </cc:Work>
    </rdf:RDF>
  </metadata>
  <g inkscape:label="Ebene 1" inkscape:groupmode="layer" id="layer1" transform="translate(-35.821123,-15.910911)">
    <path sodipodi:type="arc" style="fill:#ff9292;fill-opacity:1;stroke:#dc0067;stroke-width:1;stroke-miterlimit:4;stroke-opacity:0;stroke-dasharray:3, 1;stroke-dashoffset:0;filter:url(#filter4616)" id="path3895" sodipodi:cx="226.72481" sodipodi:cy="205.47836" sodipodi:rx="8.0020514" sodipodi:ry="8.0020514" d="m 234.72686,205.47836 c 0,4.41941 -3.58264,8.00205 -8.00205,8.00205 -4.41941,0 -8.00205,-3.58264 -8.00205,-8.00205 0,-4.41941 3.58264,-8.00205 8.00205,-8.00205 4.41941,0 8.00205,3.58264 8.00205,8.00205 z" transform="matrix(0.8560374,0,0,0.8560374,31.415916,-4.762882)"/>
    <path transform="matrix(0.8560374,0,0,0.8560374,87.358036,51.17924)" sodipodi:type="arc" style="fill:#ff9292;fill-opacity:1;stroke:#dc0067;stroke-width:1;stroke-miterlimit:4;stroke-opacity:0;stroke-dasharray:3, 1;stroke-dashoffset:0;filter:url(#filter4612)" id="path3895-6" sodipodi:cx="226.72481" sodipodi:cy="205.47836" sodipodi:rx="8.0020514" sodipodi:ry="8.0020514" d="m 234.72686,205.47836 c 0,4.41941 -3.58264,8.00205 -8.00205,8.00205 -4.41941,0 -8.00205,-3.58264 -8.00205,-8.00205 0,-4.41941 3.58264,-8.00205 8.00205,-8.00205 4.41941,0 8.00205,3.58264 8.00205,8.00205 z"/>
    <path style="fill:none;stroke:#ff7fbb;stroke-width:3.29999995;stroke-linecap:butt;stroke-linejoin:miter;stroke-miterlimit:4;stroke-opacity:0;stroke-dasharray:none;filter:url(#filter4604)" d="m 229.39215,280.84487 52.01334,-52.01334" id="path3928" inkscape:connector-curvature="0"/>
    <path style="fill:none;stroke:#ff9292;stroke-width:2;stroke-linecap:butt;stroke-linejoin:miter;stroke-miterlimit:4;stroke-opacity:1;stroke-dasharray:none;filter:url(#filter4596)" d="m 281.9722,227.43879 -7.5444,59.4122" id="path3950" inkscape:connector-curvature="0" sodipodi:nodetypes="cc"/>
    <path style="fill:none;stroke:#ff9292;stroke-width:2;stroke-linecap:butt;stroke-linejoin:miter;stroke-miterlimit:4;stroke-opacity:1;stroke-dasharray:none;filter:url(#filter4592)" d="m 225.38915,171.32727 56.11153,56.58305" id="path3950-2" inkscape:connector-curvature="0" sodipodi:nodetypes="cc"/>
    <path sodipodi:type="arc" style="fill:#ff9292;fill-opacity:1;stroke:#dc0067;stroke-width:1;stroke-miterlimit:4;stroke-opacity:0;stroke-dasharray:3, 1;stroke-dashoffset:0;filter:url(#filter4588)" id="path3895-2" sodipodi:cx="226.72481" sodipodi:cy="205.47836" sodipodi:rx="8.0020514" sodipodi:ry="8.0020514" d="m 234.72686,205.47836 c 0,4.41941 -3.58264,8.00205 -8.00205,8.00205 -4.41941,0 -8.00205,-3.58264 -8.00205,-8.00205 0,-4.41941 3.58264,-8.00205 8.00205,-8.00205 4.41941,0 8.00205,3.58264 8.00205,8.00205 z" transform="matrix(0.8560374,0,0,0.8560374,161.01678,72.384339)"/>
    <path sodipodi:type="arc" style="fill:#ff9292;fill-opacity:1;stroke:#dc0067;stroke-width:1;stroke-miterlimit:4;stroke-opacity:0;stroke-dasharray:3, 1;stroke-dashoffset:0;filter:url(#filter4584)" id="path3895-55" sodipodi:cx="226.72481" sodipodi:cy="205.47836" sodipodi:rx="8.0020514" sodipodi:ry="8.0020514" d="m 234.72686,205.47836 c 0,4.41941 -3.58264,8.00205 -8.00205,8.00205 -4.41941,0 -8.00205,-3.58264 -8.00205,-8.00205 0,-4.41941 3.58264,-8.00205 8.00205,-8.00205 4.41941,0 8.00205,3.58264 8.00205,8.00205 z" transform="matrix(0.8560374,0,0,0.8560374,221.37204,85.587051)"/>
    <path sodipodi:type="arc" style="fill:#ff9292;fill-opacity:1;stroke:#dc0067;stroke-width:1;stroke-miterlimit:4;stroke-opacity:0;stroke-dasharray:3, 1;stroke-dashoffset:0;filter:url(#filter4580)" id="path3895-7" sodipodi:cx="226.72481" sodipodi:cy="205.47836" sodipodi:rx="8.0020514" sodipodi:ry="8.0020514" d="m 234.72686,205.47836 c 0,4.41941 -3.58264,8.00205 -8.00205,8.00205 -4.41941,0 -8.00205,-3.58264 -8.00205,-8.00205 0,-4.41941 3.58264,-8.00205 8.00205,-8.00205 4.41941,0 8.00205,3.58264 8.00205,8.00205 z" transform="matrix(0.8560374,0,0,0.8560374,150.64322,-34.180409)"/>
    <path sodipodi:type="arc" style="fill:#ff9292;fill-opacity:1;stroke:#dc0067;stroke-width:1;stroke-miterlimit:4;stroke-opacity:0;stroke-dasharray:3, 1;stroke-dashoffset:0;filter:url(#filter4576)" id="path3895-56" sodipodi:cx="226.72481" sodipodi:cy="205.47836" sodipodi:rx="8.0020514" sodipodi:ry="8.0020514" d="m 234.72686,205.47836 c 0,4.41941 -3.58264,8.00205 -8.00205,8.00205 -4.41941,0 -8.00205,-3.58264 -8.00205,-8.00205 0,-4.41941 3.58264,-8.00205 8.00205,-8.00205 4.41941,0 8.00205,3.58264 8.00205,8.00205 z" transform="matrix(0.8560374,0,0,0.8560374,133.6683,-1.173628)"/>
    <path sodipodi:type="arc" style="fill:#ff9292;fill-opacity:1;stroke:#dc0067;stroke-width:1;stroke-miterlimit:4;stroke-opacity:0;stroke-dasharray:3, 1;stroke-dashoffset:0;filter:url(#filter4572)" id="path3895-3" sodipodi:cx="226.72481" sodipodi:cy="205.47836" sodipodi:rx="8.0020514" sodipodi:ry="8.0020514" d="m 234.72686,205.47836 c 0,4.41941 -3.58264,8.00205 -8.00205,8.00205 -4.41941,0 -8.00205,-3.58264 -8.00205,-8.00205 0,-4.41941 3.58264,-8.00205 8.00205,-8.00205 4.41941,0 8.00205,3.58264 8.00205,8.00205 z" transform="matrix(0.44471944,0.73145379,-0.73145379,0.44471944,191.50686,-118.72878)"/>
    <path sodipodi:type="arc" style="fill:#ff9292;fill-opacity:1;stroke:#dc0067;stroke-width:1;stroke-miterlimit:4;stroke-opacity:0;stroke-dasharray:3, 1;stroke-dashoffset:0;filter:url(#filter4568)" id="path3895-1" sodipodi:cx="226.72481" sodipodi:cy="205.47836" sodipodi:rx="8.0020514" sodipodi:ry="8.0020514" d="m 234.72686,205.47836 c 0,4.41941 -3.58264,8.00205 -8.00205,8.00205 -4.41941,0 -8.00205,-3.58264 -8.00205,-8.00205 0,-4.41941 3.58264,-8.00205 8.00205,-8.00205 4.41941,0 8.00205,3.58264 8.00205,8.00205 z" transform="matrix(0.8560374,0,0,0.8560374,-43.196776,-70.358035)"/>
    <path sodipodi:type="arc" style="fill:#ff9292;fill-opacity:1;stroke:#dc0067;stroke-width:1;stroke-miterlimit:4;stroke-opacity:0;stroke-dasharray:3, 1;stroke-dashoffset:0;filter:url(#filter4564)" id="path3895-8" sodipodi:cx="226.72481" sodipodi:cy="205.47836" sodipodi:rx="8.0020514" sodipodi:ry="8.0020514" d="m 234.72686,205.47836 c 0,4.41941 -3.58264,8.00205 -8.00205,8.00205 -4.41941,0 -8.00205,-3.58264 -8.00205,-8.00205 0,-4.41941 3.58264,-8.00205 8.00205,-8.00205 4.41941,0 8.00205,3.58264 8.00205,8.00205 z" transform="matrix(0.44471944,0.73145379,-0.73145379,0.44471944,333.63119,-180.85867)"/>
    <path style="fill:none;stroke:#ff9292;stroke-width:2;stroke-linecap:butt;stroke-linejoin:miter;stroke-miterlimit:4;stroke-opacity:1;stroke-dasharray:none;filter:url(#filter4560)" d="m 327.98898,172.83743 86.28916,87.70373" id="path3950-2-9" inkscape:connector-curvature="0" sodipodi:nodetypes="cc"/>
    <path style="fill:none;stroke:#ff9292;stroke-width:2;stroke-linecap:butt;stroke-linejoin:miter;stroke-miterlimit:4;stroke-opacity:1;stroke-dasharray:none;filter:url(#filter4556)" d="m 327.98897,173.78049 15.56035,-32.06373" id="path3950-2-4" inkscape:connector-curvature="0" sodipodi:nodetypes="cc"/>
    <path style="fill:none;stroke:#ff9292;stroke-width:2;stroke-linecap:butt;stroke-linejoin:miter;stroke-miterlimit:4;stroke-opacity:1;stroke-dasharray:none;filter:url(#filter4552)" d="M 90.768646,196.07201 115.7595,221.53438" id="path3950-2-43" inkscape:connector-curvature="0" sodipodi:nodetypes="cc" transform="matrix(0.51950936,0.85446476,-0.85446476,0.51950936,270.75469,-74.417157)"/>
    <path style="fill:none;stroke:#ff9292;stroke-width:2;stroke-linecap:butt;stroke-linejoin:miter;stroke-miterlimit:4;stroke-opacity:1;stroke-dasharray:none;filter:url(#filter4548)" d="M 136.03508,67.817093 91.240169,193.24286" id="path3950-2-1" inkscape:connector-curvature="0" sodipodi:nodetypes="cc" transform="matrix(0.51950936,0.85446476,-0.85446476,0.51950936,270.75469,-74.417157)"/>
    <path style="fill:none;stroke:#ff9292;stroke-width:2;stroke-linecap:butt;stroke-linejoin:miter;stroke-miterlimit:4;stroke-opacity:1;stroke-dasharray:none;filter:url(#filter4544)" d="m 356.28051,248.28151 58.94068,13.20271" id="path3950-2-91" inkscape:connector-curvature="0" sodipodi:nodetypes="cc"/>
    <path style="fill:none;stroke:#ff9292;stroke-width:2;stroke-linecap:butt;stroke-linejoin:miter;stroke-miterlimit:4;stroke-opacity:1;stroke-dasharray:none;filter:url(#filter4540)" d="m 224.68186,169.91269 48.56712,116.9383" id="path3950-2-2" inkscape:connector-curvature="0" sodipodi:nodetypes="cc"/>
    <path style="fill:none;stroke:#ff9292;stroke-width:2;stroke-linecap:butt;stroke-linejoin:miter;stroke-miterlimit:4;stroke-opacity:1;stroke-dasharray:none;filter:url(#filter4536)" d="m 283.15101,225.55269 43.85187,-52.81085" id="path3950-2-6" inkscape:connector-curvature="0" sodipodi:nodetypes="cc"/>
    <path sodipodi:type="arc" style="fill:#ff9292;fill-opacity:1;stroke:#dc0067;stroke-width:1;stroke-miterlimit:4;stroke-opacity:0;stroke-dasharray:3, 1;stroke-dashoffset:0;filter:url(#filter4580-9)" id="path3895-7-6" sodipodi:cx="226.72481" sodipodi:cy="205.47836" sodipodi:rx="8.0020514" sodipodi:ry="8.0020514" d="m 234.72686,205.47836 c 0,4.41941 -3.58264,8.00205 -8.00205,8.00205 -4.41941,0 -8.00205,-3.58264 -8.00205,-8.00205 0,-4.41941 3.58264,-8.00205 8.00205,-8.00205 4.41941,0 8.00205,3.58264 8.00205,8.00205 z" transform="matrix(0.8560374,0,0,0.8560374,253.39649,-83.090251)"/>
    <path sodipodi:type="arc" style="fill:#ff9292;fill-opacity:1;stroke:#dc0067;stroke-width:1;stroke-miterlimit:4;stroke-opacity:0;stroke-dasharray:3, 1;stroke-dashoffset:0;filter:url(#filter4580-1)" id="path3895-7-0" sodipodi:cx="226.72481" sodipodi:cy="205.47836" sodipodi:rx="8.0020514" sodipodi:ry="8.0020514" d="m 234.72686,205.47836 c 0,4.41941 -3.58264,8.00205 -8.00205,8.00205 -4.41941,0 -8.00205,-3.58264 -8.00205,-8.00205 0,-4.41941 3.58264,-8.00205 8.00205,-8.00205 4.41941,0 8.00205,3.58264 8.00205,8.00205 z" transform="matrix(0.8560374,0,0,0.8560374,269.16701,-28.622124)"/>
    <path sodipodi:type="arc" style="fill:#ff9292;fill-opacity:1;stroke:#dc0067;stroke-width:1;stroke-miterlimit:4;stroke-opacity:0;stroke-dasharray:3, 1;stroke-dashoffset:0;filter:url(#filter4580-12)" id="path3895-7-9" sodipodi:cx="226.72481" sodipodi:cy="205.47836" sodipodi:rx="8.0020514" sodipodi:ry="8.0020514" d="m 234.72686,205.47836 c 0,4.41941 -3.58264,8.00205 -8.00205,8.00205 -4.41941,0 -8.00205,-3.58264 -8.00205,-8.00205 0,-4.41941 3.58264,-8.00205 8.00205,-8.00205 4.41941,0 8.00205,3.58264 8.00205,8.00205 z" transform="matrix(0.8560374,0,0,0.8560374,469.22561,93.701927)"/>
    <path sodipodi:type="arc" style="fill:#ff9292;fill-opacity:1;stroke:#dc0067;stroke-width:1;stroke-miterlimit:4;stroke-opacity:0;stroke-dasharray:3, 1;stroke-dashoffset:0;filter:url(#filter4580-7)" id="path3895-7-7" sodipodi:cx="226.72481" sodipodi:cy="205.47836" sodipodi:rx="8.0020514" sodipodi:ry="8.0020514" d="m 234.72686,205.47836 c 0,4.41941 -3.58264,8.00205 -8.00205,8.00205 -4.41941,0 -8.00205,-3.58264 -8.00205,-8.00205 0,-4.41941 3.58264,-8.00205 8.00205,-8.00205 4.41941,0 8.00205,3.58264 8.00205,8.00205 z" transform="matrix(0.8560374,0,0,0.8560374,216.05358,-11.071785)"/>
    <path sodipodi:type="arc" style="fill:#ff9292;fill-opacity:1;stroke:#dc0067;stroke-width:1;stroke-miterlimit:4;stroke-opacity:0;stroke-dasharray:3, 1;stroke-dashoffset:0;filter:url(#filter4580-0)" id="path3895-7-93" sodipodi:cx="226.72481" sodipodi:cy="205.47836" sodipodi:rx="8.0020514" sodipodi:ry="8.0020514" d="m 234.72686,205.47836 c 0,4.41941 -3.58264,8.00205 -8.00205,8.00205 -4.41941,0 -8.00205,-3.58264 -8.00205,-8.00205 0,-4.41941 3.58264,-8.00205 8.00205,-8.00205 4.41941,0 8.00205,3.58264 8.00205,8.00205 z" transform="matrix(0.8560374,0,0,0.8560374,216.05358,-61.751446)"/>
    <path sodipodi:type="arc" style="fill:#ff9292;fill-opacity:1;stroke:#dc0067;stroke-width:1;stroke-miterlimit:4;stroke-opacity:0;stroke-dasharray:3, 1;stroke-dashoffset:0;filter:url(#filter4580-03)" id="path3895-7-8" sodipodi:cx="226.72481" sodipodi:cy="205.47836" sodipodi:rx="8.0020514" sodipodi:ry="8.0020514" d="m 234.72686,205.47836 c 0,4.41941 -3.58264,8.00205 -8.00205,8.00205 -4.41941,0 -8.00205,-3.58264 -8.00205,-8.00205 0,-4.41941 3.58264,-8.00205 8.00205,-8.00205 4.41941,0 8.00205,3.58264 8.00205,8.00205 z" transform="matrix(0.8560374,0,0,0.8560374,209.38521,-137.77094)"/>
    <path style="fill:none;stroke:#ff9292;stroke-width:2;stroke-linecap:butt;stroke-linejoin:miter;stroke-miterlimit:4;stroke-opacity:1;stroke-dasharray:none;filter:url(#filter4560-4)" d="m 463.25294,147.69557 -53.12057,17.08932" id="path3950-2-9-5" inkscape:connector-curvature="0" sodipodi:nodetypes="cc"/>
    <path style="fill:none;stroke:#ff9292;stroke-width:2;stroke-linecap:butt;stroke-linejoin:miter;stroke-miterlimit:4;stroke-opacity:1;stroke-dasharray:none;filter:url(#filter4560-3)" d="m 403.05948,36.52998 43.85189,56.58305" id="path3950-2-9-1" inkscape:connector-curvature="0" sodipodi:nodetypes="cc"/>
    <path style="fill:none;stroke:#ff9292;stroke-width:2;stroke-linecap:butt;stroke-linejoin:miter;stroke-miterlimit:4;stroke-opacity:1;stroke-dasharray:none;filter:url(#filter4560-6)" d="M 409.66085,112.91709 404.47407,40.30218" id="path3950-2-9-3" inkscape:connector-curvature="0" sodipodi:nodetypes="cc"/>
    <path style="fill:none;stroke:#ff9292;stroke-width:2;stroke-linecap:butt;stroke-linejoin:miter;stroke-miterlimit:4;stroke-opacity:1;stroke-dasharray:none;filter:url(#filter4560-7)" d="M 410.6039,114.8032 445.96831,93.11303" id="path3950-2-9-19" inkscape:connector-curvature="0" sodipodi:nodetypes="cc"/>
    <path style="fill:none;stroke:#ff9292;stroke-width:2;stroke-linecap:butt;stroke-linejoin:miter;stroke-miterlimit:4;stroke-opacity:1;stroke-dasharray:none;filter:url(#filter4536-4)" d="m 416.59271,260.19947 85.3461,-52.81085" id="path3950-2-6-3" inkscape:connector-curvature="0" sodipodi:nodetypes="cc"/>
    <path style="fill:none;stroke:#ff9292;stroke-width:2;stroke-linecap:butt;stroke-linejoin:miter;stroke-miterlimit:4;stroke-opacity:1;stroke-dasharray:none;filter:url(#filter4536-0)" d="m 571.25305,206.44557 92.89051,63.18441" id="path3950-2-6-5" inkscape:connector-curvature="0" sodipodi:nodetypes="cc"/>
    <path sodipodi:type="arc" style="fill:#ff9292;fill-opacity:1;stroke:#dc0067;stroke-width:1;stroke-miterlimit:4;stroke-opacity:0;stroke-dasharray:3, 1;stroke-dashoffset:0;filter:url(#filter4580-12-2)" id="path3895-7-9-6" sodipodi:cx="226.72481" sodipodi:cy="205.47836" sodipodi:rx="8.0020514" sodipodi:ry="8.0020514" d="m 234.72686,205.47836 c 0,4.41941 -3.58264,8.00205 -8.00205,8.00205 -4.41941,0 -8.00205,-3.58264 -8.00205,-8.00205 0,-4.41941 3.58264,-8.00205 8.00205,-8.00205 4.41941,0 8.00205,3.58264 8.00205,8.00205 z" transform="matrix(0.8560374,0,0,0.8560374,376.37882,30.416203)"/>
    <path sodipodi:type="arc" style="fill:#ff9292;fill-opacity:1;stroke:#dc0067;stroke-width:1;stroke-miterlimit:4;stroke-opacity:0;stroke-dasharray:3, 1;stroke-dashoffset:0;filter:url(#filter4580-12-4)" id="path3895-7-9-0" sodipodi:cx="226.72481" sodipodi:cy="205.47836" sodipodi:rx="8.0020514" sodipodi:ry="8.0020514" d="m 234.72686,205.47836 c 0,4.41941 -3.58264,8.00205 -8.00205,8.00205 -4.41941,0 -8.00205,-3.58264 -8.00205,-8.00205 0,-4.41941 3.58264,-8.00205 8.00205,-8.00205 4.41941,0 8.00205,3.58264 8.00205,8.00205 z" transform="matrix(0.8560374,0,0,0.8560374,306.59305,31.359254)"/>
    <path transform="matrix(-0.45631881,0.72427424,-0.72427424,-0.45631881,297.19677,209.39428)" sodipodi:type="arc" style="fill:#ff9292;fill-opacity:1;stroke:none;filter:url(#filter4608-5)" id="path3895-63-1" sodipodi:cx="226.72481" sodipodi:cy="205.47836" sodipodi:rx="8.0020514" sodipodi:ry="8.0020514" d="m 234.72686,205.47836 c 0,4.41941 -3.58264,8.00205 -8.00205,8.00205 -4.41941,0 -8.00205,-3.58264 -8.00205,-8.00205 0,-4.41941 3.58264,-8.00205 8.00205,-8.00205 4.41941,0 8.00205,3.58264 8.00205,8.00205 z"/>
    <path transform="matrix(-0.45631881,0.72427424,-0.72427424,-0.45631881,368.9303,193.11315)" sodipodi:type="arc" style="fill:#ff9292;fill-opacity:1;stroke:none;filter:url(#filter4608-1)" id="path3895-63-4" sodipodi:cx="226.72481" sodipodi:cy="205.47836" sodipodi:rx="8.0020514" sodipodi:ry="8.0020514" d="m 234.72686,205.47836 c 0,4.41941 -3.58264,8.00205 -8.00205,8.00205 -4.41941,0 -8.00205,-3.58264 -8.00205,-8.00205 0,-4.41941 3.58264,-8.00205 8.00205,-8.00205 4.41941,0 8.00205,3.58264 8.00205,8.00205 z"/>
    <path transform="matrix(-0.45631881,0.72427424,-0.72427424,-0.45631881,341.40451,122.96475)" sodipodi:type="arc" style="fill:#ff9292;fill-opacity:1;stroke:none;filter:url(#filter4608-6)" id="path3895-63-0" sodipodi:cx="226.72481" sodipodi:cy="205.47836" sodipodi:rx="8.0020514" sodipodi:ry="8.0020514" d="m 234.72686,205.47836 c 0,4.41941 -3.58264,8.00205 -8.00205,8.00205 -4.41941,0 -8.00205,-3.58264 -8.00205,-8.00205 0,-4.41941 3.58264,-8.00205 8.00205,-8.00205 4.41941,0 8.00205,3.58264 8.00205,8.00205 z"/>
    <path style="fill:none;stroke:#ff9292;stroke-width:2;stroke-linecap:butt;stroke-linejoin:miter;stroke-miterlimit:4;stroke-opacity:1;stroke-dasharray:none;filter:url(#filter4548-9)" d="m 107.82854,119.34426 29.17696,70.50702" id="path3950-2-1-0" inkscape:connector-curvature="0" sodipodi:nodetypes="cc" transform="matrix(-0.99987303,-0.01593516,0.01593516,-0.99987303,222.92823,385.47496)"/>
    <path style="fill:none;stroke:#ff9292;stroke-width:2;stroke-linecap:butt;stroke-linejoin:miter;stroke-miterlimit:4;stroke-opacity:1;stroke-dasharray:none;filter:url(#filter4548-6)" d="M 117.58371,211.12107 47.694865,227.64" id="path3950-2-1-7" inkscape:connector-curvature="0" sodipodi:nodetypes="cc" transform="matrix(-0.99987303,-0.01593516,0.01593516,-0.99987303,159.27742,492.75703)"/>
    <path sodipodi:type="arc" style="fill:#ff9292;fill-opacity:1;stroke:#dc0067;stroke-width:1;stroke-miterlimit:4;stroke-opacity:0;stroke-dasharray:3, 1;stroke-dashoffset:0;filter:url(#filter4580-03-3)" id="path3895-7-8-7" sodipodi:cx="226.72481" sodipodi:cy="205.47836" sodipodi:rx="8.0020514" sodipodi:ry="8.0020514" d="m 234.72686,205.47836 c 0,4.41941 -3.58264,8.00205 -8.00205,8.00205 -4.41941,0 -8.00205,-3.58264 -8.00205,-8.00205 0,-4.41941 3.58264,-8.00205 8.00205,-8.00205 4.41941,0 8.00205,3.58264 8.00205,8.00205 z" transform="matrix(0.8560374,0,0,0.8560374,-119.3991,-89.115899)"/>
    <path sodipodi:type="arc" style="fill:#ff9292;fill-opacity:1;stroke:#dc0067;stroke-width:1;stroke-miterlimit:4;stroke-opacity:0;stroke-dasharray:3, 1;stroke-dashoffset:0;filter:url(#filter4580-03-9)" id="path3895-7-8-0" sodipodi:cx="226.72481" sodipodi:cy="205.47836" sodipodi:rx="8.0020514" sodipodi:ry="8.0020514" d="m 234.72686,205.47836 c 0,4.41941 -3.58264,8.00205 -8.00205,8.00205 -4.41941,0 -8.00205,-3.58264 -8.00205,-8.00205 0,-4.41941 3.58264,-8.00205 8.00205,-8.00205 4.41941,0 8.00205,3.58264 8.00205,8.00205 z" transform="matrix(0.8560374,0,0,0.8560374,-51.381658,-150.46496)"/>
    <path style="fill:none;stroke:#ff9292;stroke-width:2;stroke-linecap:butt;stroke-linejoin:miter;stroke-miterlimit:4;stroke-opacity:1;stroke-dasharray:none;filter:url(#filter4548-6-8)" d="m 11.19297,216.67356 -57.535675,55.2462" id="path3950-2-1-7-4" inkscape:connector-curvature="0" sodipodi:nodetypes="cc" transform="matrix(0.51950936,0.85446476,-0.85446476,0.51950936,329.90192,-16.447142)"/>
    <path style="fill:none;stroke:#ff9292;stroke-width:2;stroke-linecap:butt;stroke-linejoin:miter;stroke-miterlimit:4;stroke-opacity:1;stroke-dasharray:none;filter:url(#filter4548-6-3)" d="M 88.930446,260.8158 19.561026,227.70394" id="path3950-2-1-7-41" inkscape:connector-curvature="0" sodipodi:nodetypes="cc" transform="matrix(0.51950936,0.85446476,-0.85446476,0.51950936,327.23457,-108.47074)"/>
    <path transform="matrix(-0.45631881,0.72427424,-0.72427424,-0.45631881,849.76801,107.02389)" sodipodi:type="arc" style="fill:#ff9292;fill-opacity:1;stroke:none;filter:url(#filter4608-5-0)" id="path3895-63-1-2" sodipodi:cx="226.72481" sodipodi:cy="205.47836" sodipodi:rx="8.0020514" sodipodi:ry="8.0020514" d="m 234.72686,205.47836 c 0,4.41941 -3.58264,8.00205 -8.00205,8.00205 -4.41941,0 -8.00205,-3.58264 -8.00205,-8.00205 0,-4.41941 3.58264,-8.00205 8.00205,-8.00205 4.41941,0 8.00205,3.58264 8.00205,8.00205 z"/>
    <path style="fill:none;stroke:#ff9292;stroke-width:2;stroke-linecap:butt;stroke-linejoin:miter;stroke-miterlimit:4;stroke-opacity:1;stroke-dasharray:none;filter:url(#filter4560-4-3)" d="m 596.86015,178.19524 -26.24362,28.40593" id="path3950-2-9-5-8" inkscape:connector-curvature="0" sodipodi:nodetypes="cc"/>
    <path sodipodi:type="arc" style="fill:#ff9292;fill-opacity:1;stroke:#dc0067;stroke-width:1;stroke-miterlimit:4;stroke-opacity:0;stroke-dasharray:3, 1;stroke-dashoffset:0;filter:url(#filter4580-03-1)" id="path3895-7-8-8" sodipodi:cx="226.72481" sodipodi:cy="205.47836" sodipodi:rx="8.0020514" sodipodi:ry="8.0020514" d="m 234.72686,205.47836 c 0,4.41941 -3.58264,8.00205 -8.00205,8.00205 -4.41941,0 -8.00205,-3.58264 -8.00205,-8.00205 0,-4.41941 3.58264,-8.00205 8.00205,-8.00205 4.41941,0 8.00205,3.58264 8.00205,8.00205 z" transform="matrix(0.8560374,0,0,0.8560374,466.99373,44.694169)"/>
    <path style="fill:none;stroke:#ff9292;stroke-width:2;stroke-linecap:butt;stroke-linejoin:miter;stroke-miterlimit:4;stroke-opacity:1;stroke-dasharray:none;filter:url(#filter4560-4-0)" d="m 663.11961,219.59108 -0.30972,48.21" id="path3950-2-9-5-0" inkscape:connector-curvature="0" sodipodi:nodetypes="cc"/>
    <path style="fill:none;stroke:#ff9292;stroke-width:2;stroke-linecap:butt;stroke-linejoin:miter;stroke-miterlimit:4;stroke-opacity:1;stroke-dasharray:none;filter:url(#filter4560-4-4)" d="m 645.20164,36.639215 -49.07215,1.609882" id="path3950-2-9-5-2" inkscape:connector-curvature="0" sodipodi:nodetypes="cc"/>
    <path sodipodi:type="arc" style="fill:#ff9292;fill-opacity:1;stroke:#dc0067;stroke-width:1;stroke-miterlimit:4;stroke-opacity:0;stroke-dasharray:3, 1;stroke-dashoffset:0;filter:url(#filter4580-03-96)" id="path3895-7-8-4" sodipodi:cx="226.72481" sodipodi:cy="205.47836" sodipodi:rx="8.0020514" sodipodi:ry="8.0020514" d="m 234.72686,205.47836 c 0,4.41941 -3.58264,8.00205 -8.00205,8.00205 -4.41941,0 -8.00205,-3.58264 -8.00205,-8.00205 0,-4.41941 3.58264,-8.00205 8.00205,-8.00205 4.41941,0 8.00205,3.58264 8.00205,8.00205 z" transform="matrix(0.8560374,0,0,0.8560374,451.90492,-139.20075)"/>
    <path sodipodi:type="arc" style="fill:#ff9292;fill-opacity:1;stroke:#dc0067;stroke-width:1;stroke-miterlimit:4;stroke-opacity:0;stroke-dasharray:3, 1;stroke-dashoffset:0;filter:url(#filter4580-03-6)" id="path3895-7-8-86" sodipodi:cx="226.72481" sodipodi:cy="205.47836" sodipodi:rx="8.0020514" sodipodi:ry="8.0020514" d="m 234.72686,205.47836 c 0,4.41941 -3.58264,8.00205 -8.00205,8.00205 -4.41941,0 -8.00205,-3.58264 -8.00205,-8.00205 0,-4.41941 3.58264,-8.00205 8.00205,-8.00205 4.41941,0 8.00205,3.58264 8.00205,8.00205 z" transform="matrix(0.8560374,0,0,0.8560374,484.9117,-118.45363)"/>
    <path sodipodi:type="arc" style="fill:#ff9292;fill-opacity:1;stroke:#dc0067;stroke-width:1;stroke-miterlimit:4;stroke-opacity:0;stroke-dasharray:3, 1;stroke-dashoffset:0;filter:url(#filter4580-03-4)" id="path3895-7-8-06" sodipodi:cx="226.72481" sodipodi:cy="205.47836" sodipodi:rx="8.0020514" sodipodi:ry="8.0020514" d="m 234.72686,205.47836 c 0,4.41941 -3.58264,8.00205 -8.00205,8.00205 -4.41941,0 -8.00205,-3.58264 -8.00205,-8.00205 0,-4.41941 3.58264,-8.00205 8.00205,-8.00205 4.41941,0 8.00205,3.58264 8.00205,8.00205 z" transform="matrix(0.8560374,0,0,0.8560374,472.65204,-73.187187)"/>
    <path sodipodi:type="arc" style="fill:#ff9292;fill-opacity:1;stroke:#dc0067;stroke-width:1;stroke-miterlimit:4;stroke-opacity:0;stroke-dasharray:3, 1;stroke-dashoffset:0;filter:url(#filter4580-03-7)" id="path3895-7-8-88" sodipodi:cx="226.72481" sodipodi:cy="205.47836" sodipodi:rx="8.0020514" sodipodi:ry="8.0020514" d="m 234.72686,205.47836 c 0,4.41941 -3.58264,8.00205 -8.00205,8.00205 -4.41941,0 -8.00205,-3.58264 -8.00205,-8.00205 0,-4.41941 3.58264,-8.00205 8.00205,-8.00205 4.41941,0 8.00205,3.58264 8.00205,8.00205 z" transform="matrix(0.8560374,0,0,0.8560374,416.06898,-78.845492)"/>
    <path sodipodi:type="arc" style="fill:#ff9292;fill-opacity:1;stroke:#dc0067;stroke-width:1;stroke-miterlimit:4;stroke-opacity:0;stroke-dasharray:3, 1;stroke-dashoffset:0;filter:url(#filter4580-03-5)" id="path3895-7-8-3" sodipodi:cx="226.72481" sodipodi:cy="205.47836" sodipodi:rx="8.0020514" sodipodi:ry="8.0020514" d="m 234.72686,205.47836 c 0,4.41941 -3.58264,8.00205 -8.00205,8.00205 -4.41941,0 -8.00205,-3.58264 -8.00205,-8.00205 0,-4.41941 3.58264,-8.00205 8.00205,-8.00205 4.41941,0 8.00205,3.58264 8.00205,8.00205 z" transform="matrix(0.8560374,0,0,0.8560374,402.86627,-137.31464)"/>
    <path style="fill:none;stroke:#ff9292;stroke-width:2;stroke-linecap:butt;stroke-linejoin:miter;stroke-miterlimit:4;stroke-opacity:1;stroke-dasharray:none;filter:url(#filter4560-4-4-6)" d="M 679.37065,56.635466 666.97457,102.92347" id="path3950-2-9-5-2-7" inkscape:connector-curvature="0" sodipodi:nodetypes="cc"/>
    <path style="fill:none;stroke:#ff9292;stroke-width:2;stroke-linecap:butt;stroke-linejoin:miter;stroke-miterlimit:4;stroke-opacity:1;stroke-dasharray:none;filter:url(#filter4560-4-4-7)" d="M 666.03389,103.3141 612.96072,98.922446" id="path3950-2-9-5-2-6" inkscape:connector-curvature="0" sodipodi:nodetypes="cc"/>
    <path style="fill:none;stroke:#ff9292;stroke-width:2;stroke-linecap:butt;stroke-linejoin:miter;stroke-miterlimit:4;stroke-opacity:1;stroke-dasharray:none;filter:url(#filter4560-4-4-64)" d="m 597.34962,39.297687 12.27691,56.957407" id="path3950-2-9-5-2-2" inkscape:connector-curvature="0" sodipodi:nodetypes="cc"/>
    <path style="fill:none;stroke:#ff9292;stroke-width:2;stroke-linecap:butt;stroke-linejoin:miter;stroke-miterlimit:4;stroke-opacity:1;stroke-dasharray:none;filter:url(#filter4560-4-4-1)" d="M 678.70381,56.635467 646.3026,36.239706" id="path3950-2-9-5-2-0" inkscape:connector-curvature="0" sodipodi:nodetypes="cc"/>
    <path style="fill:none;stroke:#ff9292;stroke-width:2;stroke-linecap:butt;stroke-linejoin:miter;stroke-miterlimit:4;stroke-opacity:1;stroke-dasharray:none;filter:url(#filter4560-4-4-73)" d="M 680.03748,58.635979 609.62653,96.921932" id="path3950-2-9-5-2-9" inkscape:connector-curvature="0" sodipodi:nodetypes="cc"/>
    <path style="fill:none;stroke:#ff9292;stroke-width:2;stroke-linecap:butt;stroke-linejoin:miter;stroke-miterlimit:4;stroke-opacity:1;stroke-dasharray:none;filter:url(#filter4560-4-4-12)" d="M 667.36758,102.64726 596.28978,38.240219" id="path3950-2-9-5-2-29" inkscape:connector-curvature="0" sodipodi:nodetypes="cc"/>
    <path style="fill:none;stroke:#ff9292;stroke-width:2;stroke-linecap:butt;stroke-linejoin:miter;stroke-miterlimit:4;stroke-opacity:1;stroke-dasharray:none;filter:url(#filter4560-4-4-72)" d="M 646.02877,37.964012 610.96021,96.255093" id="path3950-2-9-5-2-5" inkscape:connector-curvature="0" sodipodi:nodetypes="cc"/>
    <path style="fill:none;stroke:#ff9292;stroke-width:2;stroke-linecap:butt;stroke-linejoin:miter;stroke-miterlimit:4;stroke-opacity:1;stroke-dasharray:none;filter:url(#filter4560-4-4-8)" d="M 678.70381,59.969654 596.95662,38.240219" id="path3950-2-9-5-2-8" inkscape:connector-curvature="0" sodipodi:nodetypes="cc"/>
    <path style="fill:none;stroke:#ff9292;stroke-width:2;stroke-linecap:butt;stroke-linejoin:miter;stroke-miterlimit:4;stroke-opacity:1;stroke-dasharray:none;filter:url(#filter4560-4-4-4)" d="M 665.36706,99.979914 646.3026,38.240219" id="path3950-2-9-5-2-1" inkscape:connector-curvature="0" sodipodi:nodetypes="cc"/>
  </g>
</svg>