<?xml version="1.0" encoding="utf-8"?>
<!-- Generator: Adobe Illustrator 18.1.0, SVG Export Plug-In . SVG Version: 6.00 Build 0)  -->
<svg version="1.1" id="Ebene_1" xmlns="http://www.w3.org/2000/svg" xmlns:xlink="http://www.w3.org/1999/xlink" x="0px" y="0px"
	 viewBox="0 0 395 285" enable-background="new 0 0 395 285" xml:space="preserve">
<g>
	<path display="none" fill="#FFFFFF" d="M-18,187.5C-18,125,32.7,74.3,95.2,74.3c62.5,0,113.2,50.7,113.2,113.2
		S157.7,300.7,95.2,300.7C32.7,300.7-18,250-18,187.5L-18,187.5z"/>
	<path display="none" fill="#FFFFFF" d="M88.9,142.7c0-91,73.4-164.7,164-164.7c90.6,0,164,73.7,164,164.7s-73.4,164.7-164,164.7
		C162.3,307.4,88.9,233.6,88.9,142.7L88.9,142.7z"/>
	<path fill="#DC0067" d="M95.2,278.7c-50.1,0-90.8-40.9-90.8-91.2s40.8-91.2,90.8-91.2c50.1,0,90.8,40.9,90.8,91.2
		S145.3,278.7,95.2,278.7z M95.2,100.7c-47.6,0-86.4,38.9-86.4,86.8s38.8,86.8,86.4,86.8c47.6,0,86.4-38.9,86.4-86.8
		S142.8,100.7,95.2,100.7z"/>
	<polygon fill="#FFB400" points="208.8,167.3 246.3,129.6 281.6,129.6 256.6,154.7 306.7,154.7 306.7,179.8 256.6,179.8 281.6,205 
		246.3,205 208.8,167.3 	"/>
	<polygon fill="#FFB400" points="97.5,167.3 75.3,145 54.5,145 69.2,159.9 39.7,159.9 39.7,174.7 69.2,174.7 54.5,189.5 75.3,189.5 
		97.5,167.3 	"/>
	<path fill="#DC0067" d="M252.9,280.6c-75.8,0-137.4-61.9-137.4-137.9c0-76.1,61.6-137.9,137.4-137.9c75.8,0,137.4,61.9,137.4,137.9
		C390.3,218.7,328.7,280.6,252.9,280.6z M252.9,31.5c-61,0-110.7,49.9-110.7,111.2c0,61.3,49.7,111.2,110.7,111.2
		c61,0,110.7-49.9,110.7-111.2C363.6,81.4,314,31.5,252.9,31.5z"/>
	<path fill="#DC0067" d="M252.9,240.4c-53.7,0-97.3-43.8-97.3-97.7c0-53.9,43.6-97.7,97.3-97.7c53.7,0,97.3,43.8,97.3,97.7
		C350.2,196.6,306.6,240.4,252.9,240.4z M252.9,49.4c-51.2,0-92.9,41.8-92.9,93.3c0,51.4,41.7,93.3,92.9,93.3s92.9-41.8,92.9-93.3
		C345.8,91.3,304.1,49.4,252.9,49.4z"/>
</g>
</svg>
