<?xml version="1.0" encoding="utf-8"?>
<!-- Generator: Adobe Illustrator 18.1.0, SVG Export Plug-In . SVG Version: 6.00 Build 0)  -->
<svg version="1.1" id="Ebene_1" xmlns="http://www.w3.org/2000/svg" xmlns:xlink="http://www.w3.org/1999/xlink" x="0px" y="0px"
	 viewBox="0 0 434.9 329.4" enable-background="new 0 0 434.9 329.4" xml:space="preserve">
<g>
	<path fill="#FFFFFF" d="M0,209.5C0,147,50.7,96.3,113.2,96.3c62.5,0,113.2,50.7,113.2,113.2s-50.7,113.2-113.2,113.2
		C50.7,322.7,0,272,0,209.5L0,209.5z"/>
	<path fill="#FFFFFF" d="M106.9,164.7c0-91,73.4-164.7,164-164.7c90.6,0,164,73.7,164,164.7s-73.4,164.7-164,164.7
		C180.3,329.4,106.9,255.6,106.9,164.7L106.9,164.7z"/>
	<path fill="#DC0067" d="M113.2,300.7c-50.1,0-90.8-40.9-90.8-91.2s40.8-91.2,90.8-91.2c50.1,0,90.8,40.9,90.8,91.2
		S163.3,300.7,113.2,300.7z M113.2,122.7c-47.6,0-86.4,38.9-86.4,86.8s38.8,86.8,86.4,86.8c47.6,0,86.4-38.9,86.4-86.8
		S160.8,122.7,113.2,122.7z"/>
	<polygon fill="#FFB400" points="226.8,189.3 264.3,151.6 299.6,151.6 274.6,176.7 324.7,176.7 324.7,201.8 274.6,201.8 299.6,227 
		264.3,227 226.8,189.3 	"/>
	<polygon fill="#FFB400" points="115.5,189.3 93.3,167 72.5,167 87.2,181.9 57.7,181.9 57.7,196.7 87.2,196.7 72.5,211.5 
		93.3,211.5 115.5,189.3 	"/>
	<path fill="#DC0067" d="M270.9,302.6c-75.8,0-137.4-61.9-137.4-137.9c0-76.1,61.6-137.9,137.4-137.9c75.8,0,137.4,61.9,137.4,137.9
		C408.3,240.7,346.7,302.6,270.9,302.6z M270.9,53.5c-61,0-110.7,49.9-110.7,111.2c0,61.3,49.7,111.2,110.7,111.2
		c61,0,110.7-49.9,110.7-111.2C381.6,103.4,332,53.5,270.9,53.5z"/>
	<path fill="#DC0067" d="M270.9,262.4c-53.7,0-97.3-43.8-97.3-97.7c0-53.9,43.6-97.7,97.3-97.7c53.7,0,97.3,43.8,97.3,97.7
		C368.2,218.6,324.6,262.4,270.9,262.4z M270.9,71.4c-51.2,0-92.9,41.8-92.9,93.3c0,51.4,41.7,93.3,92.9,93.3s92.9-41.8,92.9-93.3
		C363.8,113.3,322.1,71.4,270.9,71.4z"/>
</g>
</svg>
