<?xml version="1.0" encoding="utf-8"?>
<!-- Generator: Adobe Illustrator 18.1.0, SVG Export Plug-In . SVG Version: 6.00 Build 0)  -->
<svg version="1.1" id="Ebene_1" xmlns="http://www.w3.org/2000/svg" xmlns:xlink="http://www.w3.org/1999/xlink" x="0px" y="0px"
	 viewBox="0 0 386 275.9" enable-background="new 0 0 386 275.9" xml:space="preserve">
<g>
	<path display="none" fill="#FFFFFF" d="M-22.3,182.7c0-62.5,50.7-113.2,113.2-113.2c62.5,0,113.2,50.7,113.2,113.2
		S153.4,295.9,90.8,295.9C28.3,295.9-22.3,245.2-22.3,182.7L-22.3,182.7z"/>
	<path display="none" fill="#FFFFFF" d="M84.6,137.9c0-91,73.4-164.7,164-164.7c90.6,0,164,73.7,164,164.7s-73.4,164.7-164,164.7
		C158,302.6,84.6,228.9,84.6,137.9L84.6,137.9z"/>
	<path fill="#DC0067" d="M90.8,273.9C40.8,273.9,0,233,0,182.7s40.8-91.2,90.8-91.2c50.1,0,90.8,40.9,90.8,91.2
		S140.9,273.9,90.8,273.9z M90.8,96c-47.6,0-86.4,38.9-86.4,86.8s38.8,86.8,86.4,86.8c47.6,0,86.4-38.9,86.4-86.8S138.5,96,90.8,96z
		"/>
	<polygon fill="#FFB400" points="204.4,162.5 241.9,124.8 277.3,124.8 252.3,150 302.3,150 302.3,175.1 252.3,175.1 277.3,200.2 
		241.9,200.2 204.4,162.5 	"/>
	<polygon fill="#FFB400" points="93.1,162.5 71,140.3 50.1,140.3 64.9,155.1 35.3,155.1 35.3,169.9 64.9,169.9 50.1,184.8 71,184.8 
		93.1,162.5 	"/>
	<path fill="#DC0067" d="M248.6,275.9c-75.8,0-137.4-61.9-137.4-137.9C111.2,61.9,172.8,0,248.6,0C324.3,0,386,61.9,386,137.9
		C386,214,324.3,275.9,248.6,275.9z M248.6,26.7c-61,0-110.7,49.9-110.7,111.2c0,61.3,49.7,111.2,110.7,111.2
		c61,0,110.7-49.9,110.7-111.2C359.3,76.6,309.6,26.7,248.6,26.7z"/>
	<path fill="#DC0067" d="M248.6,235.6c-53.7,0-97.3-43.8-97.3-97.7c0-53.9,43.6-97.7,97.3-97.7c53.7,0,97.3,43.8,97.3,97.7
		C345.9,191.8,302.2,235.6,248.6,235.6z M248.6,44.7c-51.2,0-92.9,41.8-92.9,93.3c0,51.4,41.7,93.3,92.9,93.3s92.9-41.8,92.9-93.3
		C341.4,86.5,299.8,44.7,248.6,44.7z"/>
</g>
</svg>
