<?xml version="1.0" encoding="utf-8"?>
<!-- Generator: Adobe Illustrator 18.1.0, SVG Export Plug-In . SVG Version: 6.00 Build 0)  -->
<svg version="1.1" id="Ebene_1" xmlns="http://www.w3.org/2000/svg" xmlns:xlink="http://www.w3.org/1999/xlink" x="0px" y="0px"
	 viewBox="0 0 349.7 143.3" enable-background="new 0 0 349.7 143.3" xml:space="preserve">
<g>
	<path fill="#FFFFFF" d="M0,5.7h33.4v10.1H12V28h18.2v10H12v20.5H0L0,5.7z"/>
	<path fill="#FFFFFF" d="M39.9,18.3h9.7l0.8,7.1h0.3c2.9-5.4,7.3-8,11.4-8c2.3,0,3.6,0.3,4.8,0.8L65,28.5c-1.5-0.4-2.7-0.7-4.4-0.7
		c-3,0-6.7,1.9-8.8,7.4v23.3H39.9V18.3z"/>
	<path fill="#FFFFFF" d="M88,17.3c11.4,0,17.1,8.3,17.1,19.3c0,2.1-0.2,4.1-0.5,5H80.5c1.1,6.1,5.1,8.8,10.5,8.8
		c3,0,5.8-0.9,8.7-2.7l4,7.2c-4.1,2.8-9.5,4.5-14.3,4.5C77.8,59.5,69,51.7,69,38.4C69,25.4,78.3,17.3,88,17.3z M94.9,34.3
		c0-4.6-1.9-7.9-6.7-7.9c-3.7,0-7,2.5-7.8,7.9H94.9z"/>
	<path fill="#FFFFFF" d="M112.4,6.2c0-3.6,2.9-6.2,6.9-6.2c4.1,0,6.9,2.5,6.9,6.2s-2.8,6.2-6.9,6.2C115.3,12.4,112.4,9.8,112.4,6.2z
		 M113.3,18.3h11.9v40.2h-11.9V18.3z"/>
	<path fill="#FFFFFF" d="M158.4,10.9c-1.4-0.5-2.8-0.8-4.1-0.8c-2.9,0-4.6,1.6-4.6,5.8v2.4h7.2v9.3h-7.2v30.9h-11.9V27.6h-5.3v-8.8
		l5.3-0.4v-2.2c0-8.5,4-15.5,14.8-15.5c3.3,0,6.2,0.8,8,1.5L158.4,10.9z"/>
	<path fill="#FFFFFF" d="M162.6,18.3h11.9v23.4c0,5.8,1.5,7.6,5,7.6c3,0,4.8-1.3,7.1-4.5V18.3h11.9v40.2h-9.7l-0.9-5.6h-0.2
		c-3.4,4.1-7.1,6.6-12.6,6.6c-8.8,0-12.5-6.2-12.5-16.2V18.3z"/>
	<path fill="#FFFFFF" d="M209.1,18.3h9.7l0.8,5.1h0.3c3.4-3.2,7.5-6.1,12.9-6.1c8.8,0,12.5,6.2,12.5,16.2v25h-11.9V35.1
		c0-5.8-1.5-7.6-4.9-7.6c-3,0-4.9,1.4-7.5,3.9v27.2h-11.9V18.3z"/>
	<path fill="#FFFFFF" d="M255.5,1.7h11.6v32.6h0.3l12.7-16h13L279,34.9l15.2,23.7h-12.9l-9.1-15.6l-5.1,5.8v9.9h-11.6V1.7z"/>
</g>
<g>
	<path fill="#FFFFFF" d="M0,73.3h33.4v10.1l-21.4,0v12.2h18.2v10.1H12v20.5H0L0,73.3z"/>
	<path fill="#FFFFFF" d="M41.5,69.4h11.9v44.8c0,2.5,1.1,3.3,2.1,3.3c0.5,0,0.8,0,1.5-0.2l1.5,8.8c-1.3,0.6-3.3,1-6,1
		c-8.2,0-10.9-5.3-10.9-13.5V69.4z"/>
	<path fill="#FFFFFF" d="M81.3,85c11.4,0,17.1,8.3,17.1,19.3c0,2.1-0.2,4.1-0.5,5H73.9c1.1,6.1,5.1,8.8,10.5,8.8
		c3,0,5.8-0.9,8.7-2.7l4,7.2c-4.1,2.8-9.5,4.5-14.3,4.5c-11.5,0-20.3-7.8-20.3-21.1C62.3,93,71.7,85,81.3,85z M88.3,101.9
		c0-4.6-1.9-7.9-6.7-7.9c-3.7,0-7,2.5-7.8,7.9H88.3z"/>
	<path fill="#FFFFFF" d="M106.7,86h9.7l0.8,5.1h0.3c3.4-3.2,7.5-6.1,12.9-6.1c8.8,0,12.5,6.2,12.5,16.2v25H131v-23.4
		c0-5.8-1.5-7.6-4.9-7.6c-3,0-4.9,1.4-7.5,3.9v27.2h-11.9V86z"/>
	<path fill="#FFFFFF" d="M154.8,114.1c3.7,2.8,7,4.2,10.4,4.2c3.6,0,5.1-1.3,5.1-3.4c0-2.7-4.1-3.9-8.2-5.5
		c-4.9-1.9-10.6-5.2-10.6-11.8c0-7.5,6.1-12.6,15.4-12.6c6.2,0,10.7,2.5,14.2,5.1l-5.3,7.1c-2.9-2.1-5.7-3.4-8.5-3.4
		c-3.1,0-4.5,1.1-4.5,3.2c0,2.6,3.7,3.6,7.9,5.1c5.1,1.9,10.9,4.7,10.9,12.1c0,7.3-5.8,13-16.5,13c-5.3,0-11.4-2.3-15.4-5.6
		L154.8,114.1z"/>
	<path fill="#FFFFFF" d="M189,69.4h11.9v13.9l-0.3,6.2c3.1-2.8,6.9-4.5,10.6-4.5c9.7,0,15.8,8,15.8,20.3c0,13.9-8.3,21.8-16.9,21.8
		c-3.6,0-7.3-1.8-10.5-5.2h-0.3l-1,4.2H189V69.4z M207.3,117.4c4.1,0,7.5-3.6,7.5-11.8c0-7.2-2.2-10.9-7-10.9
		c-2.4,0-4.6,1.1-6.9,3.6v16.5C203,116.8,205.3,117.4,207.3,117.4z"/>
	<path fill="#FFFFFF" d="M235,86h11.9v23.4c0,5.8,1.5,7.6,5,7.6c3,0,4.8-1.3,7.1-4.5V86H271v40.2h-9.7l-0.9-5.6h-0.2
		c-3.4,4.1-7.1,6.6-12.6,6.6c-8.8,0-12.5-6.2-12.5-16.2V86z"/>
	<path fill="#FFFFFF" d="M281.5,86h9.7L292,93h0.3c2.9-5.4,7.3-8,11.4-8c2.3,0,3.6,0.3,4.8,0.8l-1.9,10.3c-1.5-0.4-2.7-0.6-4.4-0.6
		c-3,0-6.7,1.9-8.8,7.4v23.3h-11.9V86z"/>
	<path fill="#FFFFFF" d="M316.2,125v-0.3c-2.1-1.4-3.7-3.5-3.7-6.8c0-2.9,1.9-5.8,4.5-7.5V110c-2.8-1.9-5.4-5.8-5.4-10.5
		c0-9.6,7.9-14.5,16.6-14.5c2.3,0,4.5,0.3,6.2,1h14.7v8.7h-6.4c0.7,1.2,1.3,3.2,1.3,5.3c0,9.2-7,13.5-15.8,13.5
		c-1.5,0-3.1-0.2-4.9-0.8c-1.1,0.9-1.5,1.6-1.5,3c0,2,1.6,3,6.1,3h6.5c9.9,0,15.3,3,15.3,10.2c0,8.3-8.7,14.4-22.5,14.4
		c-9.4,0-16.9-3.1-16.9-10.2C310.4,129.8,312.5,127.1,316.2,125z M329.2,135.8c5.3,0,9.2-2.2,9.2-4.9c0-2.5-2.2-3.2-6.2-3.2h-4.1
		c-2.8,0-4.4-0.2-5.7-0.5c-1.5,1.3-2.2,2.5-2.2,4C320.2,134.2,323.8,135.8,329.2,135.8z M333.7,99.5c0-4.2-2.4-6.5-5.5-6.5
		c-3.2,0-5.5,2.2-5.5,6.5c0,4.5,2.4,6.7,5.5,6.7C331.3,106.2,333.7,104,333.7,99.5z"/>
</g>
</svg>
